<svg width="164" height="47" viewBox="0 0 164 47" fill="none" xmlns="http://www.w3.org/2000/svg">
<path d="M69.51 30.7771C68.69 30.7771 67.945 30.6471 67.275 30.3871C66.615 30.1171 66.07 29.7271 65.64 29.2171L67.545 26.9671C67.825 27.3171 68.1 27.5771 68.37 27.7471C68.64 27.9171 68.92 28.0021 69.21 28.0021C69.58 28.0021 69.86 27.8921 70.05 27.6721C70.25 27.4521 70.35 27.1271 70.35 26.6971V22.7071H66.78V20.0371H73.845V26.4871C73.845 27.9171 73.475 28.9921 72.735 29.7121C72.005 30.4221 70.93 30.7771 69.51 30.7771ZM80.9733 30.7771C79.8433 30.7771 78.8283 30.5421 77.9283 30.0721C77.0283 29.6021 76.3233 28.9521 75.8133 28.1221C75.3033 27.2821 75.0483 26.3371 75.0483 25.2871C75.0483 24.2371 75.3033 23.2971 75.8133 22.4671C76.3233 21.6271 77.0283 20.9721 77.9283 20.5021C78.8283 20.0321 79.8433 19.7971 80.9733 19.7971C82.1033 19.7971 83.1183 20.0321 84.0183 20.5021C84.9183 20.9721 85.6233 21.6271 86.1333 22.4671C86.6433 23.2971 86.8983 24.2371 86.8983 25.2871C86.8983 26.3371 86.6433 27.2821 86.1333 28.1221C85.6233 28.9521 84.9183 29.6021 84.0183 30.0721C83.1183 30.5421 82.1033 30.7771 80.9733 30.7771ZM80.9733 27.9121C81.4133 27.9121 81.8083 27.8071 82.1583 27.5971C82.5183 27.3771 82.8033 27.0721 83.0133 26.6821C83.2233 26.2821 83.3283 25.8171 83.3283 25.2871C83.3283 24.7571 83.2233 24.2971 83.0133 23.9071C82.8033 23.5071 82.5183 23.2021 82.1583 22.9921C81.8083 22.7721 81.4133 22.6621 80.9733 22.6621C80.5333 22.6621 80.1333 22.7721 79.7733 22.9921C79.4233 23.2021 79.1433 23.5071 78.9333 23.9071C78.7233 24.2971 78.6183 24.7571 78.6183 25.2871C78.6183 25.8171 78.7233 26.2821 78.9333 26.6821C79.1433 27.0721 79.4233 27.3771 79.7733 27.5971C80.1333 27.8071 80.5333 27.9121 80.9733 27.9121ZM93.969 26.7271V30.5371H90.429V26.6821L86.469 20.0371H90.204L92.349 23.6671L94.509 20.0371H97.929L93.969 26.7271ZM101.918 22.7071V24.5071H106.298V27.1771H101.918V30.5371H98.3784V20.0371H106.913V22.7071H101.918ZM113.057 30.7771C111.447 30.7771 110.192 30.3421 109.292 29.4721C108.392 28.6021 107.942 27.3821 107.942 25.8121V20.0371H111.482V25.7071C111.482 26.4771 111.617 27.0371 111.887 27.3871C112.167 27.7371 112.567 27.9121 113.087 27.9121C113.607 27.9121 114.002 27.7371 114.272 27.3871C114.552 27.0371 114.692 26.4771 114.692 25.7071V20.0371H118.172V25.8121C118.172 27.3821 117.722 28.6021 116.822 29.4721C115.922 30.3421 114.667 30.7771 113.057 30.7771ZM119.794 20.0371H123.334V27.7921H128.074V30.5371H119.794V20.0371ZM138.604 20.0371C139.574 20.0371 140.419 20.1971 141.139 20.5171C141.859 20.8371 142.414 21.2971 142.804 21.8971C143.194 22.4971 143.389 23.1971 143.389 23.9971C143.389 24.7971 143.194 25.4971 142.804 26.0971C142.414 26.6971 141.859 27.1571 141.139 27.4771C140.419 27.7971 139.574 27.9571 138.604 27.9571H137.089V30.5371H133.549V20.0371H138.604ZM138.379 25.2271C138.859 25.2271 139.219 25.1221 139.459 24.9121C139.699 24.6921 139.819 24.3871 139.819 23.9971C139.819 23.6071 139.699 23.3071 139.459 23.0971C139.219 22.8771 138.859 22.7671 138.379 22.7671H137.089V25.2271H138.379ZM153.28 27.8671V30.5371H144.55V20.0371H153.085V22.7071H148.03V23.9371H152.47V26.4871H148.03V27.8671H153.28ZM156.923 22.7821H153.848V20.0371H163.538V22.7821H160.463V30.5371H156.923V22.7821Z" fill="white"/>
<g clip-path="url(#clip0_434_61)">
<path d="M30.761 24.8685C28.6911 21.6578 25.1657 19.7407 21.3305 19.7407C17.4953 19.7407 13.97 21.6578 11.9005 24.8685L6.91272 32.605C6.08518 33.8884 5.70334 35.3714 5.80828 36.8925C5.91321 38.4139 6.49544 39.8306 7.49179 40.9905C8.48885 42.1494 9.80632 42.9415 11.3017 43.2814C12.7971 43.6212 14.3301 43.4761 15.7346 42.8623L15.8287 42.8208C19.3628 41.307 23.4012 41.321 26.9261 42.8623C27.8354 43.2597 28.7988 43.4607 29.7709 43.4607C30.2995 43.4607 30.8312 43.4011 31.3579 43.2817C32.8534 42.9422 34.1708 42.1501 35.1682 40.9909C36.1649 39.832 36.7475 38.415 36.8528 36.8932C36.9581 35.3714 36.5763 33.8888 35.7487 32.6046L30.761 24.8685Z" fill="white"/>
<path d="M8.25619 24.8585C9.74001 24.2918 10.8673 23.1029 11.4302 21.5107C11.9661 19.9955 11.9222 18.285 11.3063 16.6938C10.69 15.1037 9.5691 13.8056 8.14985 13.0382C6.659 12.2325 5.02111 12.1013 3.53974 12.6691C0.559455 13.8084 -0.808205 17.4702 0.491371 20.8337C1.52949 23.5108 3.95071 25.2008 6.3986 25.2008C7.02364 25.2008 7.65044 25.0905 8.25619 24.8585Z" fill="white"/>
<path d="M17.9339 18.7973C21.6596 18.7973 24.6908 15.3637 24.6908 11.1432C24.6908 6.92164 21.6596 3.4873 17.9339 3.4873C14.2086 3.4873 11.1777 6.92164 11.1777 11.1432C11.1777 15.3637 14.2086 18.7973 17.9339 18.7973Z" fill="white"/>
<path d="M29.6033 20.6778H29.6036C30.1767 20.8669 30.7614 20.9573 31.3436 20.9573C34.0607 20.9573 36.7087 18.991 37.719 15.9691C38.3009 14.2296 38.2627 12.3903 37.6113 10.7904C36.9298 9.11543 35.6667 7.8997 34.0544 7.36685C32.4418 6.83401 30.6979 7.05629 29.1435 7.99217C27.6586 8.88617 26.5209 10.3367 25.9397 12.0762C24.7131 15.7458 26.3566 19.6044 29.6033 20.6778Z" fill="white"/>
<path d="M43.8324 19.7845L43.8313 19.7834C41.262 17.8963 37.4194 18.7143 35.2649 21.6077C33.1126 24.5026 33.4491 28.3944 36.0146 30.2829C36.9502 30.9721 38.0557 31.3015 39.1872 31.3015C41.1592 31.3015 43.2108 30.3007 44.5824 28.4604C46.7344 25.5655 46.3982 21.6737 43.8324 19.7845Z" fill="white"/>
</g>
<defs>
<clipPath id="clip0_434_61">
<rect width="46" height="45.7371" fill="white" transform="translate(0 0.628662)"/>
</clipPath>
</defs>
</svg>
