<svg width="164" height="46" viewBox="0 0 164 46" fill="none" xmlns="http://www.w3.org/2000/svg">
<path d="M69.51 28.24C68.69 28.24 67.95 28.11 67.29 27.85C66.63 27.58 66.08 27.19 65.64 26.68L67.545 24.43C67.825 24.77 68.1 25.03 68.37 25.21C68.64 25.38 68.92 25.465 69.21 25.465C69.97 25.465 70.35 25.03 70.35 24.16V20.17H66.78V17.5H73.845V23.95C73.845 25.39 73.475 26.465 72.735 27.175C71.995 27.885 70.92 28.24 69.51 28.24ZM80.9733 28.24C80.1233 28.24 79.3333 28.105 78.6033 27.835C77.8833 27.565 77.2583 27.185 76.7283 26.695C76.1983 26.195 75.7833 25.61 75.4833 24.94C75.1933 24.27 75.0483 23.54 75.0483 22.75C75.0483 21.95 75.1933 21.22 75.4833 20.56C75.7833 19.89 76.1983 19.31 76.7283 18.82C77.2583 18.32 77.8833 17.935 78.6033 17.665C79.3333 17.395 80.1233 17.26 80.9733 17.26C81.8333 17.26 82.6233 17.395 83.3433 17.665C84.0633 17.935 84.6883 18.32 85.2183 18.82C85.7483 19.31 86.1583 19.89 86.4483 20.56C86.7483 21.22 86.8983 21.95 86.8983 22.75C86.8983 23.54 86.7483 24.27 86.4483 24.94C86.1583 25.61 85.7483 26.195 85.2183 26.695C84.6883 27.185 84.0633 27.565 83.3433 27.835C82.6233 28.105 81.8333 28.24 80.9733 28.24ZM80.9733 25.375C81.3033 25.375 81.6083 25.315 81.8883 25.195C82.1783 25.075 82.4283 24.905 82.6383 24.685C82.8583 24.455 83.0283 24.18 83.1483 23.86C83.2683 23.53 83.3283 23.16 83.3283 22.75C83.3283 22.34 83.2683 21.975 83.1483 21.655C83.0283 21.325 82.8583 21.05 82.6383 20.83C82.4283 20.6 82.1783 20.425 81.8883 20.305C81.6083 20.185 81.3033 20.125 80.9733 20.125C80.6433 20.125 80.3333 20.185 80.0433 20.305C79.7633 20.425 79.5133 20.6 79.2933 20.83C79.0833 21.05 78.9183 21.325 78.7983 21.655C78.6783 21.975 78.6183 22.34 78.6183 22.75C78.6183 23.16 78.6783 23.53 78.7983 23.86C78.9183 24.18 79.0833 24.455 79.2933 24.685C79.5133 24.905 79.7633 25.075 80.0433 25.195C80.3333 25.315 80.6433 25.375 80.9733 25.375ZM90.429 28V23.395L91.239 25.51L86.469 17.5H90.204L93.429 22.975H91.254L94.509 17.5H97.929L93.189 25.51L93.969 23.395V28H90.429ZM101.678 21.97H106.298V24.64H101.678V21.97ZM101.918 28H98.3784V17.5H106.913V20.17H101.918V28ZM113.057 28.24C111.447 28.24 110.192 27.805 109.292 26.935C108.392 26.065 107.942 24.845 107.942 23.275V17.5H111.482V23.17C111.482 23.97 111.627 24.54 111.917 24.88C112.207 25.21 112.597 25.375 113.087 25.375C113.587 25.375 113.977 25.21 114.257 24.88C114.547 24.54 114.692 23.97 114.692 23.17V17.5H118.172V23.275C118.172 24.845 117.722 26.065 116.822 26.935C115.922 27.805 114.667 28.24 113.057 28.24ZM119.794 28V17.5H123.334V25.255H128.074V28H119.794ZM133.549 28V17.5H138.604C139.584 17.5 140.429 17.66 141.139 17.98C141.859 18.3 142.414 18.76 142.804 19.36C143.194 19.95 143.389 20.65 143.389 21.46C143.389 22.27 143.194 22.97 142.804 23.56C142.414 24.15 141.859 24.61 141.139 24.94C140.429 25.26 139.584 25.42 138.604 25.42H135.514L137.089 23.905V28H133.549ZM137.089 24.295L135.514 22.69H138.379C138.869 22.69 139.229 22.58 139.459 22.36C139.699 22.14 139.819 21.84 139.819 21.46C139.819 21.08 139.699 20.78 139.459 20.56C139.229 20.34 138.869 20.23 138.379 20.23H135.514L137.089 18.625V24.295ZM147.79 21.4H152.47V23.95H147.79V21.4ZM148.03 25.33H153.28V28H144.55V17.5H153.085V20.17H148.03V25.33ZM156.923 28V20.245H153.848V17.5H163.538V20.245H160.463V28H156.923Z" fill="#E9473C"/>
<g clip-path="url(#clip0_405_2)">
<path d="M30.761 24.3792C28.6911 21.1501 25.1657 19.222 21.3305 19.222C17.4953 19.222 13.97 21.1501 11.9005 24.3792L6.91272 32.1602C6.08518 33.451 5.70334 34.9426 5.80828 36.4724C5.91321 38.0025 6.49544 39.4274 7.49179 40.5939C8.48885 41.7594 9.80632 42.5561 11.3017 42.8979C12.7971 43.2398 14.3301 43.0938 15.7346 42.4764L15.8287 42.4347C19.3628 40.9123 23.4012 40.9263 26.9261 42.4764C27.8354 42.8762 28.7988 43.0783 29.7709 43.0783C30.2995 43.0783 30.8312 43.0183 31.3579 42.8983C32.8534 42.5568 34.1708 41.7602 35.1682 40.5943C36.1649 39.4288 36.7475 38.0036 36.8528 36.4731C36.9581 34.9426 36.5763 33.4514 35.7487 32.1599L30.761 24.3792Z" fill="#E9473C"/>
<path d="M8.25619 24.3691C9.74001 23.7991 10.8673 22.6034 11.4302 21.002C11.9661 19.4782 11.9222 17.7578 11.3063 16.1575C10.69 14.5582 9.5691 13.2527 8.14985 12.4809C6.659 11.6706 5.02111 11.5386 3.53974 12.1096C0.559455 13.2555 -0.808205 16.9384 0.491371 20.3212C1.52949 23.0137 3.95071 24.7133 6.3986 24.7133C7.02364 24.7133 7.65044 24.6024 8.25619 24.3691Z" fill="#E9473C"/>
<path d="M17.9339 18.273C21.6596 18.273 24.6908 14.8197 24.6908 10.5749C24.6908 6.32907 21.6596 2.875 17.9339 2.875C14.2086 2.875 11.1777 6.32907 11.1777 10.5749C11.1777 14.8197 14.2086 18.273 17.9339 18.273Z" fill="#E9473C"/>
<path d="M29.6033 20.1643H29.6036C30.1767 20.3545 30.7614 20.4454 31.3436 20.4454C34.0607 20.4454 36.7087 18.4678 37.719 15.4286C38.3009 13.6791 38.2627 11.8292 37.6113 10.2201C36.9298 8.53551 35.6667 7.31279 34.0544 6.77689C32.4418 6.24099 30.6979 6.46454 29.1435 7.4058C27.6586 8.30494 26.5209 9.76384 25.9397 11.5133C24.7131 15.204 26.3566 19.0848 29.6033 20.1643Z" fill="#E9473C"/>
<path d="M43.8324 19.2659L43.8313 19.2648C41.262 17.3669 37.4194 18.1895 35.2649 21.0996C33.1126 24.0111 33.4491 27.9253 36.0146 29.8246C36.9502 30.5178 38.0557 30.8491 39.1872 30.8491C41.1592 30.8491 43.2108 29.8425 44.5824 27.9916C46.7344 25.0801 46.3982 21.1659 43.8324 19.2659Z" fill="#E9473C"/>
</g>
<defs>
<clipPath id="clip0_405_2">
<rect width="46" height="46" fill="white"/>
</clipPath>
</defs>
</svg>
